<svg width="272" height="135" viewBox="0 0 272 135" fill="none" xmlns="http://www.w3.org/2000/svg">
  <rect width="272" height="135" fill="#FCFCFD"/>
  <path
    d="M10 92C19 88 23 96 29 104C31 79 31 55 36 24C39 11 47 7 53 16C59 26 58 52 58 82C58 104 60 122 66 126C72 130 74 108 76 70C78 42 83 24 90 18C96 13 101 23 101 42C101 62 99 92 101 111C102 120 105 123 110 118C119 108 121 37 129 31C136 25 139 43 139 67C139 90 138 114 145 117C153 120 154 96 157 62C160 29 164 14 171 18C178 22 177 48 177 79C177 102 177 120 182 121C188 123 191 105 194 82C197 60 198 44 202 43C207 42 209 64 211 81C214 103 216 115 221 115C227 114 231 99 235 90C239 81 244 77 249 79C253 80 256 82 262 80"
    stroke="#1D4ED8"
    stroke-width="4.5"
    stroke-linecap="round"
    stroke-linejoin="round"
  />
  <path
    d="M15 95C30 89 43 66 56 69C67 71 68 110 78 109C87 108 84 58 96 53C105 49 108 84 116 85C124 86 126 55 135 54C145 53 145 91 154 91C162 91 164 63 172 62C181 61 182 99 191 99C200 99 201 73 209 72C219 71 221 94 229 95C238 97 247 89 257 84"
    stroke="#1D4ED8"
    stroke-width="3"
    stroke-linecap="round"
    stroke-linejoin="round"
    opacity="0.92"
  />
</svg>
